<?xml version="1.0" standalone="no"?>
<!DOCTYPE svg PUBLIC "-//W3C//DTD SVG 20010904//EN"
 "http://www.w3.org/TR/2001/REC-SVG-20010904/DTD/svg10.dtd">
<svg version="1.0" xmlns="http://www.w3.org/2000/svg"
 width="512.000000pt" height="512.000000pt" viewBox="0 0 512.000000 512.000000"
 preserveAspectRatio="xMidYMid meet">
<metadata>
Created by potrace 1.10, written by Peter Selinger 2001-2011
</metadata>
<g transform="translate(0.000000,512.000000) scale(0.100000,-0.100000)"
fill="#000000" stroke="none">
<path d="M1324 4991 c-102 -26 -178 -72 -250 -151 -73 -80 -136 -219 -133
-292 l2 -33 4 30 c12 92 61 197 131 284 103 128 328 200 491 157 29 -7 48 -9
43 -4 -30 30 -184 35 -288 9z"/>
<path d="M1660 4968 c8 -8 38 -27 65 -42 39 -21 44 -23 25 -6 -30 25 -112 68
-90 48z"/>
<path d="M1830 4845 c29 -33 56 -62 58 -65 3 -3 0 4 -6 15 -6 11 -32 40 -58
65 l-48 45 54 -60z"/>
<path d="M1922 4708 c18 -37 34 -65 36 -63 6 6 -40 104 -55 117 -8 6 0 -18 19
-54z"/>
<path d="M3695 4678 c-57 -21 -136 -71 -179 -114 -43 -43 -106 -142 -106 -166
0 -7 16 16 35 52 47 87 115 152 200 192 59 28 86 34 165 39 l95 5 -90 1 c-49
1 -103 -3 -120 -9z"/>
<path d="M3930 4678 c127 -54 196 -101 244 -167 100 -138 113 -284 41 -455 -6
-13 -5 -17 3 -13 23 15 54 138 54 217 -1 179 -130 354 -306 413 -55 19 -75 21
-36 5z"/>
<path d="M1965 4491 c0 -67 3 -112 7 -99 8 29 8 154 -1 192 -3 17 -6 -25 -6
-93z"/>
<path d="M942 4490 c0 -14 2 -19 5 -12 2 6 2 18 0 25 -3 6 -5 1 -5 -13z"/>
<path d="M941 4429 c-1 -41 30 -138 59 -183 28 -44 25 -28 -10 45 -16 35 -34
89 -39 119 -7 46 -9 49 -10 19z"/>
<path d="M3396 4339 c-7 -38 -6 -143 3 -183 3 -17 6 25 6 92 0 67 -1 122 -1
122 -1 0 -4 -14 -8 -31z"/>
<path d="M1922 4268 c-18 -40 -28 -68 -23 -63 17 18 63 114 59 125 -1 5 -18
-23 -36 -62z"/>
<path d="M1020 4208 c0 -27 163 -178 193 -178 6 0 -9 13 -34 29 -51 33 -81 60
-126 116 -18 22 -33 37 -33 33z"/>
<path d="M1846 4149 c-40 -44 -41 -65 -5 -105 11 -11 49 -63 87 -116 92 -130
173 -238 178 -238 3 0 -17 30 -43 68 -27 37 -61 87 -78 110 -16 24 -43 60 -60
81 -16 20 -48 63 -69 94 l-39 57 24 28 c34 37 52 62 46 62 -2 0 -21 -18 -41
-41z"/>
<path d="M3410 4101 c0 -14 48 -98 60 -106 4 -3 -6 21 -23 53 -36 67 -37 69
-37 53z"/>
<path d="M1233 4022 c16 -25 141 -56 227 -56 83 1 193 25 205 45 8 12 8 12
-55 -12 -41 -16 -77 -22 -145 -22 -85 0 -129 9 -219 48 -13 6 -17 5 -13 -3z"/>
<path d="M4192 4014 c-5 -9 -33 -41 -62 -70 -30 -30 -49 -54 -44 -54 13 0 124
116 124 130 0 15 -8 12 -18 -6z"/>
<path d="M1679 3983 c6 -10 22 -31 36 -48 20 -23 19 -18 -6 18 -32 46 -49 63
-30 30z"/>
<path d="M3504 3952 l29 -31 -71 -83 c-39 -46 -84 -97 -99 -114 -15 -17 -93
-105 -173 -195 -80 -90 -152 -163 -160 -163 -8 1 -24 4 -35 8 -11 4 -5 -1 14
-11 l33 -18 47 51 c26 28 130 147 230 265 101 118 194 224 207 236 13 12 24
24 24 26 0 3 -17 17 -37 32 l-38 28 29 -31z"/>
<path d="M1745 3890 c4 -8 23 -34 42 -57 18 -23 33 -46 33 -52 0 -5 6 -14 13
-18 13 -7 31 -32 123 -165 20 -29 41 -57 48 -63 6 -5 23 -28 39 -50 33 -49 77
-101 56 -68 -22 34 -106 153 -145 203 -19 25 -42 56 -52 70 -84 122 -135 190
-149 201 -15 12 -16 12 -8 -1z"/>
<path d="M4030 3871 c-25 -18 -102 -46 -150 -54 -21 -4 -19 -5 7 -6 37 -1 156
43 174 65 16 20 -1 17 -31 -5z"/>
<path d="M3658 3801 l-33 -36 35 31 c31 28 39 30 68 22 19 -5 41 -8 50 -6 9 2
-7 8 -36 14 l-52 10 -32 -35z"/>
<path d="M3813 3813 c9 -2 23 -2 30 0 6 3 -1 5 -18 5 -16 0 -22 -2 -12 -5z"/>
<path d="M3598 3733 c-15 -16 -40 -41 -56 -58 -38 -40 -346 -398 -356 -413 -5
-8 9 -33 36 -65 39 -47 75 -98 108 -152 12 -20 12 -20 5 0 -11 36 -69 125
-108 166 -45 47 -46 44 47 144 31 32 56 62 56 65 0 4 15 20 33 37 37 36 52 52
176 196 91 105 112 134 59 80z"/>
<path d="M2123 3660 c55 -84 88 -127 108 -145 28 -24 -64 110 -99 145 l-26 25
17 -25z"/>
<path d="M305 3491 c-27 -10 -66 -26 -85 -36 -41 -21 -129 -98 -147 -128 -24
-42 -61 -122 -67 -147 l-6 -25 12 25 c68 147 105 197 186 249 154 98 346 93
490 -13 47 -34 112 -104 112 -121 0 -4 8 -19 19 -33 10 -15 26 -49 35 -77 12
-39 15 -42 11 -15 -13 93 -118 234 -210 282 -115 60 -250 75 -350 39z"/>
<path d="M2259 3475 c5 -11 22 -33 36 -50 14 -16 21 -21 16 -10 -6 11 -22 34
-37 50 -14 17 -21 21 -15 10z"/>
<path d="M2615 3424 c-53 -12 -135 -38 -132 -41 2 -1 39 6 82 17 102 26 218
26 320 0 97 -25 106 -24 35 2 -40 14 -87 21 -170 23 -63 2 -124 2 -135 -1z"/>
<path d="M2155 3325 c27 -38 55 -75 63 -82 12 -10 10 -17 -13 -47 -15 -20 -23
-36 -18 -36 18 0 56 62 47 76 -5 7 -25 36 -45 66 -20 29 -47 62 -60 73 -12 11
-1 -11 26 -50z"/>
<path d="M2320 3389 c0 -3 10 -19 23 -36 l22 -31 55 29 c30 15 51 28 47 29 -4
0 -26 -9 -49 -21 l-40 -21 -29 28 c-16 15 -29 26 -29 23z"/>
<path d="M2143 3108 c-37 -60 -80 -175 -94 -255 -20 -112 1 -273 46 -350 17
-29 16 -24 -16 70 -26 78 -34 188 -20 272 13 76 53 195 76 232 8 13 22 34 31
48 9 14 14 25 10 25 -3 0 -18 -19 -33 -42z"/>
<path d="M915 3013 c28 -2 161 -19 297 -38 135 -19 257 -34 270 -34 47 3 -499
77 -557 76 -58 -1 -58 -1 -10 -4z"/>
<path d="M3340 3019 c0 -3 9 -30 20 -62 46 -129 45 -290 -1 -411 -23 -61 -25
-82 -4 -42 57 110 65 305 19 451 -14 42 -34 81 -34 64z"/>
<path d="M5 2955 c21 -99 126 -230 223 -279 28 -14 55 -26 59 -26 4 1 -17 14
-48 30 -48 25 -116 82 -157 133 -8 9 -29 51 -49 94 -19 43 -32 65 -28 48z"/>
<path d="M1528 2943 c7 -3 16 -2 19 1 4 3 -2 6 -13 5 -11 0 -14 -3 -6 -6z"/>
<path d="M1565 2936 c6 -3 50 -10 98 -16 68 -10 95 -18 118 -37 40 -34 39 -73
-2 -107 -17 -14 -34 -26 -37 -26 -4 0 -86 11 -182 25 -96 14 -186 24 -200 24
-14 -1 61 -14 165 -30 105 -16 204 -27 222 -24 39 7 73 47 73 86 0 39 -37 78
-85 89 -44 9 -186 23 -170 16z"/>
<path d="M812 2858 c-7 -7 -12 -16 -12 -22 0 -5 6 -2 13 7 11 15 27 14 212
-13 110 -16 214 -29 230 -29 17 1 -58 14 -165 30 -107 15 -211 30 -231 33 -21
3 -40 1 -47 -6z"/>
<path d="M744 2768 c-27 -29 -77 -68 -109 -85 -33 -18 -55 -33 -49 -33 14 0
124 66 152 93 24 22 66 77 60 77 -2 0 -27 -24 -54 -52z"/>
<path d="M1298 2793 c7 -3 16 -2 19 1 4 3 -2 6 -13 5 -11 0 -14 -3 -6 -6z"/>
<path d="M332 2638 c13 -3 59 -6 103 -6 44 0 90 3 103 6 13 4 -34 7 -103 7
-69 0 -116 -3 -103 -7z"/>
<path d="M2128 2420 c17 -30 36 -56 42 -58 12 -4 -20 50 -51 88 -14 17 -11 7
9 -30z"/>
<path d="M3295 2403 c-51 -82 -123 -156 -207 -213 -71 -47 -86 -68 -21 -29 96
58 201 167 253 262 35 63 18 50 -25 -20z"/>
<path d="M2180 2343 c0 -6 16 -26 35 -44 19 -19 35 -38 35 -44 0 -5 -66 -76
-147 -157 l-147 -147 -27 20 c-43 30 -170 88 -209 94 -23 4 -12 -3 30 -18 81
-30 125 -52 168 -85 l33 -25 155 154 c85 84 154 158 154 164 -1 15 -80 102
-80 88z"/>
<path d="M3290 2243 c-37 -14 -60 -47 -60 -86 0 -39 7 -47 205 -247 199 -200
205 -207 200 -241 -4 -29 -3 -30 4 -9 5 14 9 30 10 37 1 7 -91 105 -204 218
-212 213 -220 224 -199 280 10 26 62 44 98 34 18 -5 26 -5 20 0 -13 13 -56 21
-74 14z"/>
<path d="M3557 2040 l182 -184 33 31 c38 36 161 103 192 104 12 0 15 3 9 6
-31 12 -136 -41 -201 -101 l-32 -30 -183 179 -182 180 182 -185z"/>
<path d="M2234 1997 c-90 -90 -164 -167 -164 -170 0 -4 16 -32 36 -62 19 -31
44 -75 54 -98 10 -23 19 -36 19 -29 1 14 -46 108 -77 157 l-20 30 166 168 c92
92 163 167 158 167 -5 0 -82 -74 -172 -163z"/>
<path d="M2453 2129 c96 -56 291 -75 423 -41 44 12 93 28 109 36 45 24 20 19
-59 -11 -64 -24 -84 -27 -201 -27 -117 0 -138 2 -204 27 -79 29 -97 33 -68 16z"/>
<path d="M1460 2081 c-27 -4 6 -6 80 -6 87 -1 110 1 75 6 -58 8 -93 8 -155 0z"/>
<path d="M1309 2051 c-45 -18 -101 -51 -86 -51 5 0 22 8 40 17 18 10 52 26 77
35 25 9 38 17 30 17 -8 0 -36 -8 -61 -18z"/>
<path d="M4048 2003 c12 -2 30 -2 40 0 9 3 -1 5 -23 4 -22 0 -30 -2 -17 -4z"/>
<path d="M1153 1969 c-39 -27 -61 -51 -30 -33 33 21 89 64 81 64 -5 -1 -28
-14 -51 -31z"/>
<path d="M4185 1986 c60 -19 147 -71 189 -114 39 -38 78 -104 108 -182 16 -41
17 -42 12 -10 -3 19 -11 45 -18 56 -45 85 -60 106 -101 146 -26 26 -60 52 -76
58 -16 7 -29 16 -29 20 0 9 -86 40 -109 39 -9 0 2 -6 24 -13z"/>
<path d="M1055 1889 c-38 -39 -32 -45 8 -10 18 15 42 51 34 51 -1 0 -21 -19
-42 -41z"/>
<path d="M974 1785 c-21 -30 -35 -57 -33 -59 2 -2 21 23 41 55 47 75 40 77 -8
4z"/>
<path d="M905 1657 c-14 -32 -27 -76 -30 -100 -5 -41 -5 -40 10 10 8 29 24 71
35 94 12 22 19 43 16 47 -3 3 -17 -20 -31 -51z"/>
<path d="M2181 1610 c0 -8 6 -42 14 -75 16 -67 19 -169 6 -230 -5 -22 -12 -56
-15 -75 -5 -31 -4 -30 11 10 22 61 22 276 0 340 -9 25 -16 38 -16 30z"/>
<path d="M3635 1465 c7 -35 55 -138 62 -132 2 3 -4 20 -14 39 -10 18 -26 53
-36 78 -12 31 -15 36 -12 15z"/>
<path d="M4491 1475 c0 -11 -15 -49 -31 -84 -17 -36 -24 -58 -16 -52 20 16 58
119 53 140 -4 12 -5 11 -6 -4z"/>
<path d="M863 1410 c0 -25 2 -35 4 -22 2 12 2 32 0 45 -2 12 -4 2 -4 -23z"/>
<path d="M3727 1286 c15 -18 44 -46 63 -62 19 -15 8 0 -25 34 -67 69 -81 79
-38 28z"/>
<path d="M4365 1257 c-50 -52 -53 -56 -18 -29 34 27 95 95 81 91 -2 0 -30 -28
-63 -62z"/>
<path d="M871 1284 c-1 -24 30 -118 53 -160 20 -38 20 -26 -1 22 -9 22 -24 66
-34 99 -10 33 -18 51 -18 39z"/>
<path d="M3855 1180 c38 -25 121 -53 138 -47 6 3 3 6 -8 6 -11 1 -49 15 -83
31 -74 35 -89 38 -47 10z"/>
<path d="M4264 1186 c-11 -8 -47 -24 -80 -35 -32 -11 -52 -20 -43 -21 26 0
112 32 138 52 28 21 15 25 -15 4z"/>
<path d="M2135 1107 c-22 -43 -55 -97 -73 -120 l-34 -42 40 42 c38 42 117 176
110 191 -2 4 -21 -28 -43 -71z"/>
<path d="M940 1086 c0 -32 195 -246 223 -246 6 0 -15 24 -47 52 -32 29 -85 86
-117 126 -33 41 -59 72 -59 68z"/>
<path d="M1973 898 c-155 -128 -380 -185 -558 -144 -33 8 -61 13 -63 11 -9 -9
74 -27 148 -32 181 -12 350 47 500 176 53 46 32 37 -27 -11z"/>
<path d="M1184 832 c7 -12 134 -74 144 -71 4 2 -27 21 -70 41 -44 21 -77 34
-74 30z"/>
</g>
</svg>
